<svg width="67" height="14" viewBox="0 0 67 14" fill="none" xmlns="http://www.w3.org/2000/svg">
<path d="M5.31458 2.40419L4.21887 8.3099H6.48458L5.35172 2.40419H5.31458ZM3.45744 -0.0100948H7.35744L10.6632 13.2499H7.43172L6.94887 10.7242H3.77315L3.30887 13.2499H0.0774375L3.45744 -0.0100948ZM15.7558 5.57991C16.3253 5.57991 16.7339 5.41276 16.9815 5.07848C17.2291 4.73181 17.3529 4.32324 17.3529 3.85276C17.3529 3.308 17.2291 2.89324 16.9815 2.60848C16.7463 2.32371 16.3315 2.18133 15.7372 2.18133H14.7901V5.57991H15.7558ZM11.6701 -0.0100948H16.9072C18.1453 -0.0100948 19.0491 0.31181 19.6186 0.95562C20.1882 1.59943 20.4729 2.42276 20.4729 3.42562C20.4729 4.42848 20.2439 5.258 19.7858 5.91419C19.3401 6.57038 18.7582 7.05943 18.0401 7.38133L21.0672 13.2499H17.5572L14.9572 7.80848H14.7901V13.2499H11.6701V-0.0100948ZM25.4541 -0.0100948V5.22705H25.4913L28.407 -0.0100948H31.7684L28.2956 5.70991L32.1956 13.2499H28.6856L26.2898 8.25419L25.4541 9.53562V13.2499H22.3341V-0.0100948H25.4541ZM36.1182 -0.0100948V4.94848H38.6068V-0.0100948H41.7268V13.2499H38.6068V7.58562H36.1182V13.2499H32.9982V-0.0100948H36.1182ZM47.9708 2.40419L46.8751 8.3099H49.1408L48.008 2.40419H47.9708ZM46.1137 -0.0100948H50.0137L53.3194 13.2499H50.088L49.6051 10.7242H46.4294L45.9651 13.2499H42.7337L46.1137 -0.0100948ZM58.9877 -0.0100948L60.622 8.6999H60.6592L62.2377 -0.0100948H66.7506V13.2499H63.8535V2.92419H63.8163L61.792 13.2499H59.3777L57.242 2.92419H57.2049V13.2499H54.4192V-0.0100948H58.9877Z" fill="white"/>
</svg>
